<?xml version="1.0" standalone="no"?>
<!DOCTYPE svg PUBLIC "-//W3C//DTD SVG 20010904//EN"
 "http://www.w3.org/TR/2001/REC-SVG-20010904/DTD/svg10.dtd">
<svg version="1.0" xmlns="http://www.w3.org/2000/svg"
 width="775.000000pt" height="775.000000pt" viewBox="0 0 775.000000 775.000000"
 preserveAspectRatio="xMidYMid meet">
<metadata>
Created by potrace 1.14, written by Peter Selinger 2001-2017
</metadata>
<g transform="translate(0.000000,775.000000) scale(0.100000,-0.100000)"
fill="#000000" stroke="none">
<path d="M4635 7131 c-82 -10 -193 -25 -245 -34 -52 -9 -167 -28 -254 -42 -88
-14 -162 -28 -166 -30 -3 -2 -40 -11 -81 -19 -49 -10 -117 -37 -198 -78 -110
-55 -134 -71 -200 -141 -74 -76 -77 -79 -116 -74 -22 2 -65 16 -95 30 -92 43
-259 93 -369 112 -138 23 -354 17 -454 -13 -95 -29 -166 -63 -239 -116 -88
-62 -97 -72 -203 -207 -68 -86 -106 -162 -172 -344 -77 -211 -104 -455 -102
-927 0 -215 -3 -343 -13 -408 l-13 -95 -80 -21 c-44 -11 -98 -29 -120 -39 -22
-10 -137 -51 -255 -92 -118 -40 -251 -87 -295 -103 -186 -67 -458 -136 -695
-175 -107 -18 -141 -35 -204 -106 -57 -64 -71 -118 -63 -251 3 -54 11 -115 18
-135 19 -63 117 -183 196 -239 64 -46 104 -66 253 -124 158 -62 686 -139 989
-143 l138 -2 6 -245 c7 -282 14 -347 63 -543 40 -161 59 -220 108 -339 167
-402 364 -675 685 -951 152 -131 356 -265 532 -350 213 -103 268 -127 287
-127 9 -1 35 -8 57 -16 101 -38 252 -78 425 -114 144 -29 591 -38 755 -16 338
47 756 187 945 316 14 10 60 38 103 64 l77 48 83 -11 c45 -6 127 -17 182 -25
160 -23 433 -29 555 -12 144 19 352 93 450 159 134 91 190 198 190 362 0 130
-51 376 -113 545 -43 118 -158 355 -188 388 -8 9 -34 46 -57 82 -22 36 -57 83
-77 105 -124 138 -127 143 -161 283 -18 75 -172 393 -249 512 -30 47 -63 98
-72 114 -10 16 -42 58 -71 93 -30 36 -52 66 -50 68 2 3 70 9 151 14 81 6 151
12 155 15 4 2 55 9 112 16 166 17 431 68 585 112 216 62 439 143 455 167 3 4
26 20 51 34 86 50 117 86 146 167 22 62 26 92 26 171 -1 106 -13 154 -70 267
-35 68 -133 180 -202 228 -116 82 -375 180 -626 238 -189 43 -285 59 -605 100
-69 9 -154 21 -190 26 -36 5 -94 13 -129 17 l-63 8 -18 50 c-47 136 -123 426
-135 510 -3 28 -15 95 -25 150 -11 55 -28 150 -40 210 -51 272 -78 360 -159
517 -72 139 -193 268 -304 325 -125 64 -172 77 -347 97 -25 2 -112 -3 -195
-13z"/>
<path d="M277 634 c-4 -4 -30 -12 -59 -20 -39 -9 -45 -12 -23 -13 17 0 48 6
70 14 53 19 208 19 271 0 27 -8 58 -14 69 -14 11 0 -9 9 -45 20 -64 19 -268
28 -283 13z"/>
<path d="M1330 620 c-36 -10 -56 -18 -45 -19 11 0 45 6 75 14 71 19 201 19
264 0 27 -8 56 -15 65 -14 9 0 -11 9 -44 20 -78 25 -224 24 -315 -1z"/>
</g>
</svg>
